<?xml version="1.0" encoding="UTF-8" standalone="no"?>
<!DOCTYPE svg PUBLIC "-//W3C//DTD SVG 1.1//EN"
 "http://www.w3.org/Graphics/SVG/1.1/DTD/svg11.dtd">
<!-- Generated by graphviz version 2.49.3 (0)
 -->
<!-- Pages: 1 -->
<svg width="226pt" height="102pt"
 viewBox="0.00 0.00 226.00 102.00" xmlns="http://www.w3.org/2000/svg" xmlns:xlink="http://www.w3.org/1999/xlink">
<g id="graph0" class="graph" transform="scale(1 1) rotate(0) translate(4 98)">
<g id="clust1" class="cluster">
<title>cluster_tx_1</title>
<path fill="#d0d0d0" stroke="#666666" stroke-width="0.5" d="M18.67,-54C18.67,-54 42.33,-54 42.33,-54 47.67,-54 53,-59.33 53,-64.67 53,-64.67 53,-75.33 53,-75.33 53,-80.67 47.67,-86 42.33,-86 42.33,-86 18.67,-86 18.67,-86 13.33,-86 8,-80.67 8,-75.33 8,-75.33 8,-64.67 8,-64.67 8,-59.33 13.33,-54 18.67,-54"/>
</g>
<g id="clust2" class="cluster">
<title>cluster_tx_1_outputs</title>
</g>
<g id="clust3" class="cluster">
<title>cluster_tx_2</title>
<path fill="#d0d0d0" stroke="#666666" stroke-width="0.5" d="M91,-8C91,-8 198,-8 198,-8 204,-8 210,-14 210,-20 210,-20 210,-74 210,-74 210,-80 204,-86 198,-86 198,-86 91,-86 91,-86 85,-86 79,-80 79,-74 79,-74 79,-20 79,-20 79,-14 85,-8 91,-8"/>
<text text-anchor="middle" x="144.5" y="-22.4" font-family="Helvetica,sans-Serif" font-size="7.00" fill="#555555">142.5 vB × 1.0 sat/vB </text>
<text text-anchor="middle" x="144.5" y="-14.4" font-family="Helvetica,sans-Serif" font-size="7.00" fill="#555555">= 142 sats in fees</text>
</g>
<g id="clust4" class="cluster">
<title>cluster_tx_2_inputs</title>
</g>
<g id="clust5" class="cluster">
<title>cluster_tx_2_outputs</title>
</g>
<!-- output_1_1 -->
<g id="node1" class="node">
<title>output_1_1</title>
<path fill="#ffffff" stroke="transparent" stroke-width="2" d="M40,-79C40,-79 21,-79 21,-79 18,-79 15,-76 15,-73 15,-73 15,-67 15,-67 15,-64 18,-61 21,-61 21,-61 40,-61 40,-61 43,-61 46,-64 46,-67 46,-67 46,-73 46,-73 46,-76 43,-79 40,-79"/>
<text text-anchor="middle" x="30.5" y="-67.2" font-family="Helvetica,sans-Serif" font-size="11.00" fill="#000000">50.0</text>
</g>
<!-- input_2_1 -->
<g id="node2" class="node">
<title>input_2_1</title>
<path fill="#ffffff" stroke="transparent" stroke-width="2" d="M111,-79C111,-79 92,-79 92,-79 89,-79 86,-76 86,-73 86,-73 86,-67 86,-67 86,-64 89,-61 92,-61 92,-61 111,-61 111,-61 114,-61 117,-64 117,-67 117,-67 117,-73 117,-73 117,-76 114,-79 111,-79"/>
<text text-anchor="middle" x="101.5" y="-67.2" font-family="Helvetica,sans-Serif" font-size="11.00" fill="#000000">50.0</text>
</g>
<!-- output_1_1&#45;&gt;input_2_1 -->
<g id="edge2" class="edge">
<title>output_1_1&#45;&gt;input_2_1</title>
<path fill="none" stroke="#909090" d="M46.13,-70C56.2,-70 69.68,-70 80.7,-70"/>
<polygon fill="#909090" stroke="#909090" points="80.89,-71.75 85.89,-70 80.89,-68.25 80.89,-71.75"/>
</g>
<!-- output_2_1 -->
<g id="node3" class="node">
<title>output_2_1</title>
<path fill="#ffffff" stroke="#333333" stroke-width="2" d="M197,-79C197,-79 131,-79 131,-79 128,-79 125,-76 125,-73 125,-73 125,-67 125,-67 125,-64 128,-61 131,-61 131,-61 197,-61 197,-61 200,-61 203,-64 203,-67 203,-67 203,-73 203,-73 203,-76 200,-79 197,-79"/>
<text text-anchor="middle" x="164" y="-67.2" font-family="Helvetica,sans-Serif" font-size="11.00" fill="#000000">29.99999858</text>
</g>
<!-- input_2_1&#45;&gt;output_2_1 -->
<!-- output_2_2 -->
<g id="node4" class="node">
<title>output_2_2</title>
<path fill="#ffffff" stroke="#333333" stroke-width="2" d="M173.5,-57C173.5,-57 154.5,-57 154.5,-57 151.5,-57 148.5,-54 148.5,-51 148.5,-51 148.5,-45 148.5,-45 148.5,-42 151.5,-39 154.5,-39 154.5,-39 173.5,-39 173.5,-39 176.5,-39 179.5,-42 179.5,-45 179.5,-45 179.5,-51 179.5,-51 179.5,-54 176.5,-57 173.5,-57"/>
<text text-anchor="middle" x="164" y="-45.2" font-family="Helvetica,sans-Serif" font-size="11.00" fill="#000000">20.0</text>
</g>
</g>
</svg>
