<?xml version="1.0" encoding="UTF-8" standalone="no"?>
<!DOCTYPE svg PUBLIC "-//W3C//DTD SVG 1.1//EN"
 "http://www.w3.org/Graphics/SVG/1.1/DTD/svg11.dtd">
<!-- Generated by graphviz version 2.49.3 (0)
 -->
<!-- Pages: 1 -->
<svg width="250pt" height="100pt"
 viewBox="0.00 0.00 250.00 100.00" xmlns="http://www.w3.org/2000/svg" xmlns:xlink="http://www.w3.org/1999/xlink">
<g id="graph0" class="graph" transform="scale(1 1) rotate(0) translate(4 96)">
<g id="clust1" class="cluster">
<title>cluster_tx_1</title>
<path fill="#d0d0d0" stroke="#666666" stroke-width="0.5" d="M20,-8C20,-8 86,-8 86,-8 92,-8 98,-14 98,-20 98,-20 98,-72 98,-72 98,-78 92,-84 86,-84 86,-84 20,-84 20,-84 14,-84 8,-78 8,-72 8,-72 8,-20 8,-20 8,-14 14,-8 20,-8"/>
</g>
<g id="clust2" class="cluster">
<title>cluster_tx_1_inputs</title>
</g>
<g id="clust3" class="cluster">
<title>cluster_tx_1_outputs</title>
</g>
<g id="clust4" class="cluster">
<title>cluster_tx_2</title>
<path fill="#d0d0d0" stroke="#666666" stroke-width="0.5" d="M136,-30C136,-30 222,-30 222,-30 228,-30 234,-36 234,-42 234,-42 234,-72 234,-72 234,-78 228,-84 222,-84 222,-84 136,-84 136,-84 130,-84 124,-78 124,-72 124,-72 124,-42 124,-42 124,-36 130,-30 136,-30"/>
</g>
<g id="clust5" class="cluster">
<title>cluster_tx_2_inputs</title>
</g>
<g id="clust6" class="cluster">
<title>cluster_tx_2_outputs</title>
</g>
<!-- input_1_1 -->
<g id="node1" class="node">
<title>input_1_1</title>
<path fill="#ffffff" stroke="transparent" stroke-width="2" d="M33,-77C33,-77 21,-77 21,-77 18,-77 15,-74 15,-71 15,-71 15,-65 15,-65 15,-62 18,-59 21,-59 21,-59 33,-59 33,-59 36,-59 39,-62 39,-65 39,-65 39,-71 39,-71 39,-74 36,-77 33,-77"/>
<text text-anchor="middle" x="27" y="-65.2" font-family="Helvetica,sans-Serif" font-size="11.00" fill="#000000">1.0</text>
</g>
<!-- output_1_1 -->
<g id="node4" class="node">
<title>output_1_1</title>
<path fill="#ffffff" stroke="transparent" stroke-width="2" d="M75,-77C75,-77 63,-77 63,-77 60,-77 57,-74 57,-71 57,-71 57,-65 57,-65 57,-62 60,-59 63,-59 63,-59 75,-59 75,-59 78,-59 81,-62 81,-65 81,-65 81,-71 81,-71 81,-74 78,-77 75,-77"/>
<text text-anchor="middle" x="69" y="-65.2" font-family="Helvetica,sans-Serif" font-size="11.00" fill="#000000">1.1</text>
</g>
<!-- input_1_1&#45;&gt;output_1_1 -->
<!-- input_1_2 -->
<g id="node2" class="node">
<title>input_1_2</title>
<path fill="#ffffff" stroke="transparent" stroke-width="2" d="M33,-55C33,-55 21,-55 21,-55 18,-55 15,-52 15,-49 15,-49 15,-43 15,-43 15,-40 18,-37 21,-37 21,-37 33,-37 33,-37 36,-37 39,-40 39,-43 39,-43 39,-49 39,-49 39,-52 36,-55 33,-55"/>
<text text-anchor="middle" x="27" y="-43.2" font-family="Helvetica,sans-Serif" font-size="11.00" fill="#000000">0.5</text>
</g>
<!-- input_1_3 -->
<g id="node3" class="node">
<title>input_1_3</title>
<path fill="#ffffff" stroke="transparent" stroke-width="2" d="M33,-33C33,-33 21,-33 21,-33 18,-33 15,-30 15,-27 15,-27 15,-21 15,-21 15,-18 18,-15 21,-15 21,-15 33,-15 33,-15 36,-15 39,-18 39,-21 39,-21 39,-27 39,-27 39,-30 36,-33 33,-33"/>
<text text-anchor="middle" x="27" y="-21.2" font-family="Helvetica,sans-Serif" font-size="11.00" fill="#000000">0.5</text>
</g>
<!-- input_2_1 -->
<g id="node7" class="node">
<title>input_2_1</title>
<path fill="#ffffff" stroke="transparent" stroke-width="2" d="M159,-77C159,-77 147,-77 147,-77 144,-77 141,-74 141,-71 141,-71 141,-65 141,-65 141,-62 144,-59 147,-59 147,-59 159,-59 159,-59 162,-59 165,-62 165,-65 165,-65 165,-71 165,-71 165,-74 162,-77 159,-77"/>
<text text-anchor="middle" x="153" y="-65.2" font-family="Helvetica,sans-Serif" font-size="11.00" fill="#000000">1.1</text>
</g>
<!-- output_1_1&#45;&gt;input_2_1 -->
<g id="edge3" class="edge">
<title>output_1_1&#45;&gt;input_2_1</title>
<path fill="none" stroke="#909090" d="M81.06,-68C95.12,-68 119.51,-68 135.7,-68"/>
<polygon fill="#909090" stroke="#909090" points="135.85,-69.75 140.85,-68 135.85,-66.25 135.85,-69.75"/>
</g>
<!-- output_1_2 -->
<g id="node5" class="node">
<title>output_1_2</title>
<path fill="#ffffff" stroke="transparent" stroke-width="2" d="M85,-55C85,-55 53,-55 53,-55 50,-55 47,-52 47,-49 47,-49 47,-43 47,-43 47,-40 50,-37 53,-37 53,-37 85,-37 85,-37 88,-37 91,-40 91,-43 91,-43 91,-49 91,-49 91,-52 88,-55 85,-55"/>
<text text-anchor="middle" x="69" y="-43.2" font-family="Helvetica,sans-Serif" font-size="11.00" fill="#000000">0.7999</text>
</g>
<!-- input_2_2 -->
<g id="node8" class="node">
<title>input_2_2</title>
<path fill="#ffffff" stroke="transparent" stroke-width="2" d="M169,-55C169,-55 137,-55 137,-55 134,-55 131,-52 131,-49 131,-49 131,-43 131,-43 131,-40 134,-37 137,-37 137,-37 169,-37 169,-37 172,-37 175,-40 175,-43 175,-43 175,-49 175,-49 175,-52 172,-55 169,-55"/>
<text text-anchor="middle" x="153" y="-43.2" font-family="Helvetica,sans-Serif" font-size="11.00" fill="#000000">0.7999</text>
</g>
<!-- output_1_2&#45;&gt;input_2_2 -->
<g id="edge4" class="edge">
<title>output_1_2&#45;&gt;input_2_2</title>
<path fill="none" stroke="#909090" d="M91.12,-46C101.73,-46 114.7,-46 125.93,-46"/>
<polygon fill="#909090" stroke="#909090" points="125.95,-47.75 130.95,-46 125.95,-44.25 125.95,-47.75"/>
</g>
<!-- output_1_3 -->
<g id="node6" class="node">
<title>output_1_3</title>
<path fill="#ffffff" stroke="#333333" stroke-width="2" d="M75,-33C75,-33 63,-33 63,-33 60,-33 57,-30 57,-27 57,-27 57,-21 57,-21 57,-18 60,-15 63,-15 63,-15 75,-15 75,-15 78,-15 81,-18 81,-21 81,-21 81,-27 81,-27 81,-30 78,-33 75,-33"/>
<text text-anchor="middle" x="69" y="-21.2" font-family="Helvetica,sans-Serif" font-size="11.00" fill="#000000">0.1</text>
</g>
<!-- output_2_1 -->
<g id="node9" class="node">
<title>output_2_1</title>
<path fill="#ffffff" stroke="#333333" stroke-width="2" d="M211,-77C211,-77 199,-77 199,-77 196,-77 193,-74 193,-71 193,-71 193,-65 193,-65 193,-62 196,-59 199,-59 199,-59 211,-59 211,-59 214,-59 217,-62 217,-65 217,-65 217,-71 217,-71 217,-74 214,-77 211,-77"/>
<text text-anchor="middle" x="205" y="-65.2" font-family="Helvetica,sans-Serif" font-size="11.00" fill="#000000">1.0</text>
</g>
<!-- input_2_1&#45;&gt;output_2_1 -->
<!-- output_2_2 -->
<g id="node10" class="node">
<title>output_2_2</title>
<path fill="#ffffff" stroke="#333333" stroke-width="2" d="M221,-55C221,-55 189,-55 189,-55 186,-55 183,-52 183,-49 183,-49 183,-43 183,-43 183,-40 186,-37 189,-37 189,-37 221,-37 221,-37 224,-37 227,-40 227,-43 227,-43 227,-49 227,-49 227,-52 224,-55 221,-55"/>
<text text-anchor="middle" x="205" y="-43.2" font-family="Helvetica,sans-Serif" font-size="11.00" fill="#000000">0.8998</text>
</g>
</g>
</svg>
